{"title":"Chloe 2010 DVDSCR www.IWANNA","uid":5507771,"size":736794120,"categoryP":"video","categoryS":"movies","magnet":"?xt=urn:btih:40e313bc895a514f91afb0cf98e44e43ed549ac5&amp;dn=Chloe+2010+DVDSCR+www.IWANNA&amp;tr=udp%3A%2F%2Ftracker.openbittorrent.com%3A80&amp;tr=udp%3A%2F%2Fopen.demonii.com%3A1337&amp;tr=udp%3A%2F%2Ftracker.coppersurfer.tk%3A6969&amp;tr=udp%3A%2F%2Fexodus.desync.com%3A6969","seeders":1,"leechers":0,"uploader":"IwannaFan2","files":3,"time":1271899815,"description":"Filename:\nChloe LIMITED DVDSCR XviD-ViDA\n &lt;a href=&quot;\nhttp://www.imdb.com/title/tt1352824/&quot; rel=&quot;nofollow&quot; target=&quot;_NEW&quot;&gt;\nhttp://www.imdb.com/title/tt1352824/&lt;/a&gt;\n\nGeneral\nComplete name                    : C:MoviesChloe 2010 DVDSCR2010 DVDSCR\nFormat                           : AVI\nFormat/Info                      : Audio Video Interleave\nFile size                        : 700 MiB\nDuration                         : 1h 36mn\nOverall bit rate                 : 1 017 Kbps\nWriting application              : VirtualDubMod 1.5.10.2 (build 2540/release)\nWriting library                  : VirtualDubMod build 2540/release\n\nVideo\nID                               : 0\nFormat                           : MPEG-4 Visual\nFormat profile                   : AdvancedSimple@L5\nFormat settings, BVOP            : Yes\nFormat settings, QPel            : No\nFormat settings, GMC             : No warppoints\nFormat settings, Matrix          : Default (H.263)\nCodec ID                         : XVID\nCodec ID/Hint                    : XviD\nDuration                         : 1h 36mn\nBit rate                         : 879 Kbps\nWidth                            : 624 pixels\nHeight                           : 336 pixels\nDisplay aspect ratio             : 1.857\nFrame rate                       : 23.976 fps\nResolution                       : 24 bits\nColorimetry                      : 4:2:0\nScan type                        : Progressive\nBits/(Pixel*Frame)               : 0.175\nStream size                      : 606 MiB (86%)\nWriting library                  : XviD 1.2.1 (UTC 2008-12-04)\n\nAudio\nID                               : 1\nFormat                           : MPEG Audio\nFormat version                   : Version 1\nFormat profile                   : Layer 3\nFormat_Settings_Mode             : Joint stereo / MS Stereo\nCodec ID                         : 55\nCodec ID/Hint                    : MP3\nDuration                         : 1h 36mn\nBit rate mode                    : Variable\nBit rate                         : 125 Kbps\nNominal bit rate                 : 128 Kbps\nChannel(s)                       : 2 channels\nSampling rate                    : 48.0 KHz\nResolution                       : 16 bits\nStream size                      : 85.8 MiB (12%)\nAlignment                        : Aligned on interleaves\nInterleave, duration             : 24 ms (0.58 video frame)\nInterleave, preload duration     : 147 ms\nWriting library                  : LAME3.90.\nEncoding settings                : -m j -V 4 -q 2 -lowpass 17.6 --abr 128\n\nPlot:\n\nA doctor hires an escort to seduce her husband, whom she suspects of\ncheating, though unforeseen events put the family in danger.","torrent":{"xt":"urn:btih:40e313bc895a514f91afb0cf98e44e43ed549ac5","amp;dn":"Chloe+2010+DVDSCR+www.IWANNA","amp;tr":["udp%3A%2F%2Ftracker.openbittorrent.com%3A80","udp%3A%2F%2Fopen.demonii.com%3A1337","udp%3A%2F%2Ftracker.coppersurfer.tk%3A6969","udp%3A%2F%2Fexodus.desync.com%3A6969"],"infoHash":"40e313bc895a514f91afb0cf98e44e43ed549ac5","infoHashBuffer":{"type":"Buffer","data":[64,227,19,188,137,90,81,79,145,175,176,207,152,228,78,67,237,84,154,197]},"announce":[],"urlList":[]}}